# xmcd
#
# Track frame offsets:
#	150
#	2285
#	25718
#	43873
#	63932
#	87067
#	92723
#	109474
#	128138
#	149551
#	170419
#	172113
#	196717
#	222257
#	245239
#	247599
#	267776
#	290739
#	312157
#	331981
#
# Disc length: 4481 seconds
#
# Revision: 0
# Processed by: cddbd v1.4PL0 Copyright (c) Steve Scherf et al.
# Submitted via: EasyCDDAExtractor 4.6.9.1
#
DISCID=1a117f14
DTITLE=Eminem - The Eminem Show
DYEAR=2002
DGENRE=Rap
TTITLE0=Curtains Up (skit)
TTITLE1=White America
TTITLE2=Business
TTITLE3=Cleanin Out My Closet
TTITLE4=Square Dance
TTITLE5=The Kiss (skit)
TTITLE6=Soldier
TTITLE7=Say Goodbye Hollywood
TTITLE8=Drips
TTITLE9=Without Me
TTITLE10=Paul Rosenberg (skit)
TTITLE11=Sing For The Moment
TTITLE12=Superman
TTITLE13=Hailie´s Song
TTITLE14=Steve Burman (skit)
TTITLE15=When The Music Stops
TTITLE16=Say What You Say
TTITLE17=´Till I Colapse
TTITLE18=My Dad´s Gone Crazy
TTITLE19=Curtains Close (skit)
EXTD=ripped by A. M.
EXTT0=
EXTT1=
EXTT2=
EXTT3=
EXTT4=
EXTT5=
EXTT6=
EXTT7=
EXTT8=
EXTT9=
EXTT10=
EXTT11=
EXTT12=
EXTT13=
EXTT14=
EXTT15=
EXTT16=
EXTT17=
EXTT18=
EXTT19=
PLAYORDER=
